<svg xmlns="http://www.w3.org/2000/svg" viewBox="0 0 128 128" shape-rendering="geometricPrecision">
  <defs>
    <linearGradient id="solBg" x1="0" y1="0" x2="128" y2="128" gradientUnits="userSpaceOnUse">
      <stop offset="0" stop-color="#1a1a2e"/>
      <stop offset="1" stop-color="#0a0a14"/>
    </linearGradient>
    <linearGradient id="solBars" x1="20" y1="100" x2="108" y2="28" gradientUnits="userSpaceOnUse">
      <stop offset="0" stop-color="#9945FF"/>
      <stop offset="0.3" stop-color="#8752F3"/>
      <stop offset="0.6" stop-color="#5497D5"/>
      <stop offset="0.85" stop-color="#43B4CA"/>
      <stop offset="1" stop-color="#19FB9B"/>
    </linearGradient>
  </defs>
  <circle cx="64" cy="64" r="64" fill="url(#solBg)"/>
  <g fill="url(#solBars)">
    <path d="M40.3 84.9a2.4 2.4 0 0 1 1.7-.7h53.7c1.5 0 2.3 1.8 1.2 2.9L86.2 97.8a2.4 2.4 0 0 1-1.7.7H30.8c-1.5 0-2.3-1.8-1.2-2.9l10.7-10.7Z"/>
    <path d="M40.3 30.2a2.4 2.4 0 0 1 1.7-.7h53.7c1.5 0 2.3 1.8 1.2 2.9L86.2 43.1a2.4 2.4 0 0 1-1.7.7H30.8c-1.5 0-2.3-1.8-1.2-2.9l10.7-10.7Z"/>
    <path d="M86.2 57.4a2.4 2.4 0 0 0-1.7-.7H30.8c-1.5 0-2.3 1.8-1.2 2.9l10.7 10.7a2.4 2.4 0 0 0 1.7.7h53.7c1.5 0 2.3-1.8 1.2-2.9L86.2 57.4Z"/>
  </g>
</svg>
